<?xml version="1.0" encoding="utf-8"?>
<!-- Generator: Adobe Illustrator 19.0.1, SVG Export Plug-In . SVG Version: 6.00 Build 0)  -->
<svg version="1.1" id="Layer_1" xmlns="http://www.w3.org/2000/svg" xmlns:xlink="http://www.w3.org/1999/xlink" x="0px" y="0px"
	 viewBox="0 0 24 24" style="enable-background:new 0 0 24 24;" xml:space="preserve">
<style type="text/css">
	.st0{fill:url(#SVGID_1_);}
	.st1{fill:url(#SVGID_2_);}
	.st2{fill:url(#SVGID_3_);}
	.st3{fill:url(#SVGID_4_);}
	.st4{fill:url(#SVGID_5_);}
	.st5{fill:url(#SVGID_6_);}
	.st6{fill:none;stroke:#FFFFFF;stroke-miterlimit:10;}
	.st7{fill:url(#SVGID_7_);}
</style>
<linearGradient id="SVGID_1_" gradientUnits="userSpaceOnUse" x1="19.8528" y1="9.1069" x2="19.8528" y2="-5.296553e-02">
	<stop  offset="0" style="stop-color:#BBE0F7"/>
	<stop  offset="1" style="stop-color:#82B4FB"/>
</linearGradient>
<polygon class="st0" points="24,0 21,0 15.7,7.1 18.4,9.1 24,1.6 "/>
<linearGradient id="SVGID_2_" gradientUnits="userSpaceOnUse" x1="20.3653" y1="27.6615" x2="20.3653" y2="25.6555" gradientTransform="matrix(0.5975 -0.8019 -0.8019 -0.5975 26.7989 38.446)">
	<stop  offset="0" style="stop-color:#95BFF8"/>
	<stop  offset="0.5569" style="stop-color:#84ADEF"/>
	<stop  offset="1" style="stop-color:#7CA4EB"/>
</linearGradient>
<path class="st1" d="M13.3,13.6l-1.6-1.2L21,0l2.5,0L13.3,13.6z"/>
<linearGradient id="SVGID_3_" gradientUnits="userSpaceOnUse" x1="4.2148" y1="9.323" x2="4.2148" y2="-5.348903e-02">
	<stop  offset="0" style="stop-color:#BBE0F7"/>
	<stop  offset="1" style="stop-color:#82B4FB"/>
</linearGradient>
<polygon class="st2" points="2.6,0 0,0 0,2 5.8,9.3 8.4,7.2 "/>
<linearGradient id="SVGID_4_" gradientUnits="userSpaceOnUse" x1="6.0951" y1="13.1347" x2="6.0951" y2="-4.578047e-02">
	<stop  offset="0" style="stop-color:#95BFF8"/>
	<stop  offset="0.5569" style="stop-color:#84ADEF"/>
	<stop  offset="1" style="stop-color:#7CA4EB"/>
</linearGradient>
<polygon class="st3" points="2.6,0 0.1,0 10.6,13.1 12.1,11.9 "/>
<linearGradient id="SVGID_5_" gradientUnits="userSpaceOnUse" x1="12" y1="5.9625" x2="12" y2="22.8375">
	<stop  offset="0" style="stop-color:#90C50E"/>
	<stop  offset="1" style="stop-color:#70A034"/>
</linearGradient>
<ellipse class="st4" cx="12" cy="14.4" rx="8.3" ry="8.4"/>
<linearGradient id="SVGID_6_" gradientUnits="userSpaceOnUse" x1="12" y1="6.5689" x2="12" y2="22.2311">
	<stop  offset="0" style="stop-color:#D9F991"/>
	<stop  offset="0.2388" style="stop-color:#D7F88D"/>
	<stop  offset="0.4501" style="stop-color:#D1F383"/>
	<stop  offset="0.6509" style="stop-color:#C6EC71"/>
	<stop  offset="0.844" style="stop-color:#B7E257"/>
	<stop  offset="1" style="stop-color:#A8D73D"/>
</linearGradient>
<circle class="st5" cx="12" cy="14.4" r="7.8"/>
<circle class="st6" cx="12" cy="14.4" r="6.2"/>
<linearGradient id="SVGID_7_" gradientUnits="userSpaceOnUse" x1="12" y1="9.4421" x2="12" y2="18.5725">
	<stop  offset="0" style="stop-color:#76A1F0"/>
	<stop  offset="1" style="stop-color:#6B90D5"/>
</linearGradient>
<polygon class="st7" points="12,9.4 13.5,12.4 16.8,12.9 14.4,15.3 15,18.6 12,17 9,18.6 9.6,15.3 7.2,12.9 10.5,12.4 "/>
</svg>
